<?xml version="1.0" encoding="iso-8859-1"?>
<!-- Generator: Adobe Illustrator 19.0.0, SVG Export Plug-In . SVG Version: 6.00 Build 0)  -->
<svg version="1.1" id="Capa_1" xmlns="http://www.w3.org/2000/svg" xmlns:xlink="http://www.w3.org/1999/xlink" x="0px" y="0px"
	 viewBox="0 0 512 512" style="enable-background:new 0 0 512 512;" xml:space="preserve">
<g>
	<g>
		<circle cx="256" cy="244.364" r="11.636"/>
	</g>
</g>
<g>
	<g>
		<path d="M367.988,246.912l-101.958-81.455c-4.166-3.328-10.054-3.398-14.289-0.186l-107.497,81.455
			c-3.98,3.014-5.597,8.239-4.003,12.975c1.594,4.748,6.028,7.936,11.031,7.936h11.636V384c0,6.423,5.213,11.636,11.636,11.636
			h46.545h69.818h46.545c6.435,0,11.636-5.213,11.636-11.636V267.636h11.636c4.945,0,9.356-3.13,10.973-7.785
			C373.341,255.185,371.852,249.996,367.988,246.912z M279.273,372.364h-46.545v-69.818h46.545V372.364z M325.818,256v116.364
			h-23.273v-81.455c0-6.423-5.201-11.636-11.636-11.636h-69.818c-6.423,0-11.636,5.213-11.636,11.636v81.455h-23.273V256
			c0-3.514-1.559-6.668-4.026-8.797l76.428-57.914l71.878,57.414C327.633,248.832,325.818,252.207,325.818,256z"/>
	</g>
</g>
<g>
	<g>
		<path d="M360.727,81.454H151.273c-6.423,0-11.636,5.213-11.636,11.636c0,6.423,5.213,11.636,11.636,11.636h209.455
			c6.435,0,11.636-5.213,11.636-11.636C372.364,86.668,367.162,81.454,360.727,81.454z"/>
	</g>
</g>
<g>
	<g>
		<path d="M500.364,360.727c6.435,0,11.636-5.213,11.636-11.636v-256c0-32.081-26.1-58.182-58.182-58.182
			c-32.081,0-58.182,26.1-58.182,58.182v325.818c0,6.423,5.201,11.636,11.636,11.636c6.435,0,11.636-5.213,11.636-11.636
			c0-19.247,15.663-34.909,34.909-34.909c19.247,0,34.909,15.663,34.909,34.909c0,19.247-15.663,34.909-34.909,34.909H58.182
			c-19.247,0-34.909-15.663-34.909-34.909c0-19.247,15.663-34.909,34.909-34.909s34.909,15.663,34.909,34.909
			c0,6.423,5.213,11.636,11.636,11.636s11.636-5.213,11.636-11.636V93.091c0-32.081-26.1-58.182-58.182-58.182
			C26.1,34.909,0,61.009,0,93.091v256c0,6.423,5.213,11.636,11.636,11.636s11.636-5.213,11.636-11.636v-256
			c0-19.247,15.663-34.909,34.909-34.909s34.909,15.663,34.909,34.909v279.296c-9.728-7.308-21.818-11.66-34.909-11.66
			C26.1,360.727,0,386.828,0,418.909c0,32.081,26.1,58.182,58.182,58.182h395.636c32.081,0,58.182-26.1,58.182-58.182
			c0-32.081-26.1-58.182-58.182-58.182c-13.091,0-25.181,4.352-34.909,11.66V93.091c0-19.247,15.663-34.909,34.909-34.909
			c19.247,0,34.909,15.663,34.909,34.909v256C488.727,355.514,493.929,360.727,500.364,360.727z"/>
	</g>
</g>
<g>
</g>
<g>
</g>
<g>
</g>
<g>
</g>
<g>
</g>
<g>
</g>
<g>
</g>
<g>
</g>
<g>
</g>
<g>
</g>
<g>
</g>
<g>
</g>
<g>
</g>
<g>
</g>
<g>
</g>
</svg>
