<?xml version="1.0" encoding="iso-8859-1"?>
<!-- Generator: Adobe Illustrator 19.0.0, SVG Export Plug-In . SVG Version: 6.00 Build 0)  -->
<svg version="1.1" id="Capa_1" xmlns="http://www.w3.org/2000/svg" xmlns:xlink="http://www.w3.org/1999/xlink" x="0px" y="0px"
	 viewBox="0 0 512 512" style="enable-background:new 0 0 512 512;" xml:space="preserve">
<g>
	<g>
		<circle cx="256" cy="418.909" r="11.636"/>
	</g>
</g>
<g>
	<g>
		<circle cx="209.455" cy="418.909" r="11.636"/>
	</g>
</g>
<g>
	<g>
		<circle cx="162.909" cy="418.909" r="11.636"/>
	</g>
</g>
<g>
	<g>
		<circle cx="116.364" cy="418.909" r="11.636"/>
	</g>
</g>
<g>
	<g>
		<circle cx="69.818" cy="418.909" r="11.636"/>
	</g>
</g>
<g>
	<g>
		<path d="M465.222,257.152c0.047-0.396,0.233-0.745,0.233-1.152V34.909c0-6.423-5.201-11.636-11.636-11.636H384
			c-6.435,0-11.636,5.213-11.636,11.636c0,6.423,5.201,11.636,11.636,11.636h4.538l-138.519,83.119
			c-5.516,3.305-7.296,10.449-3.991,15.965c2.176,3.631,6.028,5.644,9.984,5.644c2.036,0,4.108-0.535,5.981-1.664l138.065-82.839
			l-99.503,183.68c-3.072,5.655-0.966,12.719,4.678,15.767c1.769,0.966,3.665,1.42,5.539,1.42c4.131,0,8.134-2.199,10.24-6.086
			L437.469,46.545h4.713V256c0,0.407,0.186,0.756,0.233,1.152c-26.636,5.318-46.778,28.858-46.778,57.03
			c0,32.081,26.1,58.182,58.182,58.182c32.081,0,58.182-26.1,58.182-58.182C512,286.01,491.857,262.47,465.222,257.152z
			 M453.818,349.091c-19.247,0-34.909-15.663-34.909-34.909s15.663-34.909,34.909-34.909c19.247,0,34.909,15.663,34.909,34.909
			S473.065,349.091,453.818,349.091z"/>
	</g>
</g>
<g>
	<g>
		<path d="M290.932,358.447l-0.023-44.265c0,0-0.058-1.28-0.163-1.908l-20.038-120.192c-2.804-16.896-17.28-29.172-34.42-29.172
			h-73.379c-19.247,0-34.909,15.663-34.909,34.909v34.909c0,6.435,5.201,11.636,11.636,11.636c6.435,0,11.636-5.201,11.636-11.636
			v-34.909c0-6.423,5.213-11.636,11.636-11.636h73.379c5.713,0,10.543,4.096,11.473,9.716l17.769,106.647h-49.85l-12.905-19.363
			c-6.493-9.74-17.35-15.546-29.044-15.546H46.545c-6.435,0-11.636,5.201-11.636,11.636v34.909c0,6.435,5.201,11.636,11.636,11.636
			c6.435,0,11.636-5.201,11.636-11.636v-23.273h115.549c3.898,0,7.517,1.932,9.681,5.178l16.361,24.541
			c2.164,3.247,5.795,5.19,9.681,5.19h58.182l0.023,39.761c0,4.62,2.735,8.809,6.97,10.659
			c16.966,7.424,27.916,24.169,27.916,42.671c0,25.67-20.876,46.545-46.545,46.545H69.818c-25.67,0-46.545-20.876-46.545-46.545
			c0-25.67,20.876-46.545,46.545-46.545h162.909c6.435,0,11.636-5.201,11.636-11.636c0-6.435-5.201-11.636-11.636-11.636H69.818
			C31.313,349.091,0,380.404,0,418.909s31.313,69.818,69.818,69.818H256c38.505,0,69.818-31.313,69.818-69.818
			C325.818,393.798,312.355,370.828,290.932,358.447z"/>
	</g>
</g>
<g>
</g>
<g>
</g>
<g>
</g>
<g>
</g>
<g>
</g>
<g>
</g>
<g>
</g>
<g>
</g>
<g>
</g>
<g>
</g>
<g>
</g>
<g>
</g>
<g>
</g>
<g>
</g>
<g>
</g>
</svg>
